<svg xmlns:mydata="http://www.w3.org/2000/svg" mydata:contrastcolor="00B74F" mydata:template="Contrast" mydata:presentation="2.5" mydata:layouttype="undefined" mydata:specialfontid="undefined" mydata:id1="865" mydata:id2="296" mydata:companyname="Tech Haven" mydata:companytagline="" version="1.1" xmlns="http://www.w3.org/2000/svg" xmlns:xlink="http://www.w3.org/1999/xlink" viewBox="0 0 550 470"><g fill="#101820" fill-rule="nonzero" stroke="none" stroke-width="1" stroke-linecap="butt" stroke-linejoin="miter" stroke-miterlimit="10" stroke-dasharray="" stroke-dashoffset="0" font-family="none" font-weight="none" font-size="none" text-anchor="none" style="mix-blend-mode: normal"><g data-paper-data="{&quot;isGlobalGroup&quot;:true,&quot;bounds&quot;:{&quot;x&quot;:143.18531437396675,&quot;y&quot;:119.39852399906687,&quot;width&quot;:263.62937125206645,&quot;height&quot;:231.20295200186632}}"><g data-paper-data="{&quot;isSecondaryText&quot;:true}"><path d="M241.37943,297.32187c3.73106,-9.70076 6.79053,-17.01364 6.79053,-17.38675c0,-2.61174 -12.83485,-11.34243 -12.83485,-9.32765c0,4.02955 -4.02955,16.26743 -8.73068,29.40076c-5.74583,1.11932 -12.08864,2.38788 -18.50606,3.5072c5.22349,-13.43182 10.8947,-25.22197 10.8947,-25.6697c0,-2.16402 -8.20833,-7.31288 -11.26781,-8.35758c-1.19394,-0.89545 -2.38788,-1.4178 -3.28333,-1.4178c-6.64129,0 -33.80342,19.10303 -40.0716,12.90947c-3.20871,3.20871 9.10379,10.74546 13.65568,10.74546c4.32803,0 19.40152,-13.87955 27.60985,-15.07349c-2.16402,8.05909 -6.79053,19.10303 -11.11856,28.87841c-11.26781,1.34318 -21.26705,1.49242 -26.63978,-1.49242c0,0 -0.97008,2.31326 -0.67159,4.47727c0.29848,2.08939 3.58182,10.96932 16.41667,9.17841c0.74621,-0.14924 2.91023,-0.52235 5.89508,-1.0447c-2.53712,5.67121 -4.32803,9.77538 -4.32803,10.52159c0,4.62652 8.50682,12.68561 14.70038,12.68561c-1.49242,-5.29811 0.82083,-15.29735 4.32803,-25.74432c5.59659,-0.89545 11.9394,-1.86553 18.20758,-2.68636c-5.14886,14.02879 -9.85,26.41591 -9.85,27.7591c0,6.11894 12.16326,11.41705 14.25265,11.41705c2.08939,0 0.37311,0.07462 0.37311,-5.67121c0,-7.31288 4.55189,-21.56553 9.40227,-34.92273c10.67084,-0.89545 11.11856,-0.74621 14.92425,1.34318c3.65644,2.76099 -3.05947,-15.67046 -10.14849,-14.02879z" data-paper-data="{&quot;glyphName&quot;:&quot;H&quot;,&quot;glyphIndex&quot;:0,&quot;firstGlyphOfWord&quot;:true,&quot;word&quot;:1}"></path><path d="M296.37527,305.08248c0,0 -11.71553,15.52121 -18.2822,22.08788c1.94015,-9.55152 7.90985,-20.37159 9.17841,-23.05796c1.19394,-2.61174 -9.17841,-7.76061 -10.22311,-7.76061c0,0.37311 -0.74621,2.01477 -2.01477,4.40265c-0.44773,0.82083 -0.97008,1.79091 -1.64167,2.91023c-2.98485,-3.58182 -11.64091,-6.71591 -15.22273,-6.71591c-3.58182,0 -12.16326,15.67046 -12.16326,24.32652c0,3.43258 9.85,8.4322 13.73031,9.99924c0.52235,0.29848 1.0447,0.44773 1.49242,0.44773c0.67159,0 2.53712,-2.76099 4.85038,-6.64129c0,0.22386 0,0.37311 0,0.59697c0,2.4625 5.37273,6.19356 8.8053,8.05909c0.89545,0.67159 2.01477,1.19394 2.83561,1.19394c2.16402,0 21.19243,-25.81894 21.19243,-25.81894c0,-8.35758 -2.53712,-4.02955 -2.53712,-4.02955zM257.49761,325.45408c0.89545,-6.04432 7.16364,-20.89394 11.79015,-20.89394c1.19394,0 2.23864,0.37311 3.05947,0.82083c-5.59659,9.17841 -14.62576,23.50569 -14.84962,20.07311z" data-paper-data="{&quot;glyphName&quot;:&quot;a&quot;,&quot;glyphIndex&quot;:1,&quot;word&quot;:1}"></path><path d="M330.47717,281.27831c-5.44735,4.925 -19.47614,23.95341 -27.23675,37.53448c1.86553,-7.08902 3.80568,-15.52121 4.17879,-17.2375c0.59697,-2.4625 -5.22349,-7.76061 -9.70076,-7.61137c0,4.47727 -6.71591,26.56516 -6.71591,30.37084c0,1.56705 4.25341,4.77576 7.16364,6.64129c1.0447,1.34318 3.5072,4.77576 5.67121,4.77576c0,0 9.02917,-21.41629 33.65417,-46.4144c1.11932,-1.11932 2.53712,0.82083 2.83561,0.59697c1.49242,-1.19394 -7.23826,-9.99924 -9.85,-8.65606z" data-paper-data="{&quot;glyphName&quot;:&quot;v&quot;,&quot;glyphIndex&quot;:2,&quot;word&quot;:1}"></path><path d="M365.62377,305.67945c-4.55189,6.93977 -17.08826,21.64016 -22.98334,21.93864c-3.5072,0.14924 -6.93977,-2.4625 -6.71591,-6.71591c0.14924,-2.76099 0.59697,-3.73106 1.26856,-5.9697c0.82083,2.16402 3.05947,3.80568 7.46212,3.80568c8.20833,0 12.3125,-7.16364 12.68561,-13.43182c0,-5.59659 -3.13409,-6.86515 -4.47727,-6.86515c-2.08939,-2.53712 -9.40227,-5.9697 -10.96932,-5.89508c-5.59659,0.22386 -16.93902,12.01402 -17.01364,26.26667c0,10.07387 10.59621,14.4019 17.38675,14.4019c8.28296,0 23.65493,-19.25228 26.56516,-24.02803c0.44773,-0.74621 -1.26856,-4.77576 -3.20871,-3.5072zM350.6249,300.00824c0.59697,0 0.97008,0.14924 1.26856,0.44773c-1.11932,4.85038 -5.29811,12.83485 -11.04394,12.83485c-1.34318,0 -2.23864,-0.37311 -2.76099,-0.82083c3.58182,-8.73068 10.59621,-12.38712 12.53637,-12.46174z" data-paper-data="{&quot;glyphName&quot;:&quot;e&quot;,&quot;glyphIndex&quot;:3,&quot;word&quot;:1}"></path><path d="M403.90446,307.09725c0,0 -11.19318,16.49129 -15.8197,21.49091c2.68636,-9.4769 7.83523,-21.64016 7.83523,-24.625c0,-2.23864 -8.35758,-8.20833 -10.07387,-8.20833c-2.68636,0 -8.95455,10.67084 -13.73031,19.99849c2.31326,-6.19356 4.47727,-11.71553 4.47727,-12.68561c0,-1.4178 -5.89508,-6.41743 -9.70076,-6.41743c0,5.37273 -10.07387,27.16213 -10.07387,30.37084c0,1.79091 8.95455,7.23826 10.07387,7.23826c1.11932,-3.80568 10.59621,-19.7 16.34205,-28.1322c-2.91023,8.87993 -7.16364,20.37159 -7.16364,23.35644c0,1.79091 9.17841,7.90985 10.37235,7.90985c0,-0.07462 0,-0.07462 0,-0.07462c0.14924,0 0.29848,0.07462 0.44773,0.07462c1.11932,0 19.92387,-26.7144 19.92387,-26.7144c0,-8.05909 -2.91023,-3.58182 -2.91023,-3.58182z" data-paper-data="{&quot;glyphName&quot;:&quot;n&quot;,&quot;glyphIndex&quot;:4,&quot;lastGlyphOfWord&quot;:true,&quot;word&quot;:1}"></path></g><g data-paper-data="{&quot;isPrimaryText&quot;:true}"><path d="M151.52442,119.39852h41.50599c2.527,0 4.51701,0.72651 5.97004,2.17954c1.45303,1.45303 2.17954,3.44304 2.17954,5.97004c0,2.527 -0.72651,4.5486 -2.17954,6.0648c-1.45303,1.5162 -3.44304,2.2743 -5.97004,2.2743h-12.50865v107.83976c0,2.527 -0.7581,4.5486 -2.2743,6.0648c-1.5162,1.5162 -3.5378,2.2743 -6.0648,2.2743c-2.527,0 -4.5486,-0.7581 -6.0648,-2.2743c-1.5162,-1.5162 -2.2743,-3.5378 -2.2743,-6.0648v-107.83976h-12.31913c-2.527,0 -4.5486,-0.7581 -6.0648,-2.2743c-1.5162,-1.5162 -2.2743,-3.5378 -2.2743,-6.0648c0,-2.527 0.7581,-4.51701 2.2743,-5.97004c1.5162,-1.45303 3.5378,-2.17954 6.0648,-2.17954z" data-paper-data="{&quot;glyphName&quot;:&quot;T&quot;,&quot;glyphIndex&quot;:0,&quot;firstGlyphOfWord&quot;:true,&quot;word&quot;:1}"></path><path d="M228.09255,182.32085h21.41633c2.527,0 4.5486,0.7581 6.0648,2.2743c1.5162,1.5162 2.2743,3.5378 2.2743,6.0648c0,2.527 -0.7581,4.5486 -2.2743,6.0648c-1.5162,1.5162 -3.5378,2.2743 -6.0648,2.2743h-21.41633v36.38881h24.82778c2.527,0 4.5486,0.7581 6.0648,2.2743c1.5162,1.5162 2.2743,3.5378 2.2743,6.0648c0,2.527 -0.7581,4.5486 -2.2743,6.0648c-1.5162,1.5162 -3.5378,2.2743 -6.0648,2.2743h-27.29161c-4.2959,0 -7.73894,-1.29509 -10.32912,-3.88526c-2.59018,-2.59018 -3.88526,-6.03321 -3.88526,-10.32912v-104.23879c0,-4.2959 1.29509,-7.73894 3.88526,-10.32912c2.59018,-2.59018 6.03321,-3.88526 10.32912,-3.88526h27.48114c2.527,0 4.51701,0.72651 5.97004,2.17954c1.45303,1.45303 2.17954,3.44304 2.17954,5.97004c0,2.527 -0.72651,4.5486 -2.17954,6.0648c-1.45303,1.5162 -3.44304,2.2743 -5.97004,2.2743h-25.01731z" data-paper-data="{&quot;glyphName&quot;:&quot;E&quot;,&quot;glyphIndex&quot;:1,&quot;word&quot;:1}"></path><path d="M390.326,127.5481c0,-2.527 0.7581,-4.51701 2.2743,-5.97004c1.5162,-1.45303 3.5378,-2.17954 6.0648,-2.17954c2.527,0 4.51701,0.72651 5.97004,2.17954c1.45303,1.45303 2.17954,3.44304 2.17954,5.97004v116.17887c0,2.527 -0.72651,4.5486 -2.17954,6.0648c-1.45303,1.5162 -3.44304,2.2743 -5.97004,2.2743c-2.527,0 -4.5486,-0.7581 -6.0648,-2.2743c-1.5162,-1.5162 -2.2743,-3.5378 -2.2743,-6.0648v-49.65557h-25.01731v49.65557c0,2.527 -0.72651,4.5486 -2.17954,6.0648c-1.45303,1.5162 -3.44304,2.2743 -5.97004,2.2743c-2.527,0 -4.5486,-0.7581 -6.0648,-2.2743c-1.5162,-1.5162 -2.2743,-3.5378 -2.2743,-6.0648v-49.65557h-33.16689c-2.527,0 -4.5486,-0.7581 -6.0648,-2.2743c-1.5162,-1.5162 -2.2743,-3.5378 -2.2743,-6.0648c0,-2.527 0.7581,-4.5486 2.2743,-6.0648c1.5162,-1.5162 3.5378,-2.2743 6.0648,-2.2743h33.16689v-49.84509c0,-2.527 0.7581,-4.51701 2.2743,-5.97004c1.5162,-1.45303 3.5378,-2.17954 6.0648,-2.17954c2.527,0 4.51701,0.72651 5.97004,2.17954c1.45303,1.45303 2.17954,3.44304 2.17954,5.97004v49.84509h25.01731zM332.14181,148.39586v5.3067c0,3.66415 -1.7689,5.49623 -5.3067,5.49623h-5.68575c-3.66415,0 -5.49623,-1.83208 -5.49623,-5.49623v-5.3067c0,-3.41145 -1.23191,-6.3175 -3.69574,-8.71815c-2.46383,-2.40065 -5.40146,-3.60098 -8.81292,-3.60098c-3.41145,0 -6.3175,1.20033 -8.71815,3.60098c-2.40065,2.40065 -3.60098,5.3067 -3.60098,8.71815v74.67288c0,3.41145 1.20033,6.34909 3.60098,8.81292c2.40065,2.46383 5.3067,3.69574 8.71815,3.69574c3.41145,0 6.34909,-1.23191 8.81292,-3.69574c2.46383,-2.46383 3.69574,-5.40146 3.69574,-8.81292v-5.49623c0,-3.5378 1.83208,-5.3067 5.49623,-5.3067h5.68575c3.5378,0 5.3067,1.7689 5.3067,5.3067v5.49623c0,4.0432 -0.7581,7.8337 -2.2743,11.3715c-1.5162,3.5378 -3.60098,6.60179 -6.25433,9.19197c-2.65335,2.59018 -5.71734,4.64336 -9.19197,6.15956c-3.47463,1.5162 -7.23354,2.2743 -11.27674,2.2743c-4.0432,0 -7.8337,-0.7581 -11.3715,-2.2743c-3.5378,-1.5162 -6.60179,-3.60098 -9.19197,-6.25433c-2.59018,-2.65335 -4.64336,-5.74893 -6.15956,-9.28673c-1.5162,-3.5378 -2.2743,-7.26513 -2.2743,-11.18198v-74.67288c0,-4.0432 0.7581,-7.80212 2.2743,-11.27674c1.5162,-3.47463 3.60098,-6.53861 6.25433,-9.19197c2.65335,-2.65335 5.74893,-4.73813 9.28673,-6.25433c3.5378,-1.5162 7.26513,-2.2743 11.18198,-2.2743c4.0432,0 7.8337,0.7581 11.3715,2.2743c3.5378,1.5162 6.60179,3.60098 9.19197,6.25433c2.59018,2.65335 4.64336,5.71734 6.15956,9.19197c1.5162,3.47463 2.2743,7.23354 2.2743,11.27674z" data-paper-data="{&quot;glyphName&quot;:&quot;&quot;,&quot;glyphIndex&quot;:2,&quot;lastGlyphOfWord&quot;:true,&quot;word&quot;:1}"></path></g></g></g><g class="watermark-group" style="opacity:0.10; stroke: white; stroke-width: 2; stroke-opacity: 0.7;"><path class="watermark-path" d="M129.52,370.3a11.88,11.88,0,0,1,2.58,5.58,12,12,0,0,1,.11,3,11.81,11.81,0,0,1-.64,2.93,12.34,12.34,0,0,1-1.41,2.72,11.65,11.65,0,0,1-2.13,2.32,12,12,0,0,1-2.64,1.69,13,13,0,0,1-2.91.9,12.47,12.47,0,0,1-3,.12,12.17,12.17,0,0,1-2.93-.64,11.8,11.8,0,0,1-2.72-1.38,12.19,12.19,0,0,1-4-4.79,11.85,11.85,0,0,1-.89-2.92,12.14,12.14,0,0,1-.13-3,11.54,11.54,0,0,1,.64-2.92,11.67,11.67,0,0,1,3.5-5,11.44,11.44,0,0,1,2.67-1.69,11.64,11.64,0,0,1,2.92-.91,10.71,10.71,0,0,1,3-.12,11.68,11.68,0,0,1,5.66,2,11.7,11.7,0,0,1,2.34,2.12m-1.4,8.76a13,13,0,0,1-1.22,2.32,9.68,9.68,0,0,1-1.81,2,7.44,7.44,0,0,1-2.38,1.37,6.17,6.17,0,0,1-5.11-.46,8.73,8.73,0,0,1-3.85-4.58,6.69,6.69,0,0,1-.34-2.66,6.09,6.09,0,0,1,.77-2.47,7.15,7.15,0,0,1,1.75-2.11,9.58,9.58,0,0,1,1.09-.81,8.23,8.23,0,0,1,1.12-.63,8.14,8.14,0,0,1,1.19-.46,12.71,12.71,0,0,1,1.32-.37l2,2.38a12.83,12.83,0,0,0-1.56.17,7.86,7.86,0,0,0-1.23.32,4.5,4.5,0,0,0-1,.49,6.41,6.41,0,0,0-.93.67,4.49,4.49,0,0,0-1.15,1.39,3.87,3.87,0,0,0-.45,1.58,4.12,4.12,0,0,0,.26,1.63,6.11,6.11,0,0,0,2.36,2.82,4.43,4.43,0,0,0,1.57.53,3.91,3.91,0,0,0,1.62-.17,4.71,4.71,0,0,0,1.57-.89,10.5,10.5,0,0,0,.83-.79,5.71,5.71,0,0,0,.65-.93,10.13,10.13,0,0,0,.54-1.14,12.24,12.24,0,0,0,.44-1.49l2,2.33m-14.46,4.55a8.86,8.86,0,0,0,2.78,2.22,9,9,0,0,0,3.29.94,9.15,9.15,0,0,0,3.39-.37,8.68,8.68,0,0,0,3.11-1.69,8.8,8.8,0,0,0,2.22-2.78,9.15,9.15,0,0,0,1-3.29,8.95,8.95,0,0,0-4.83-8.76,9,9,0,0,0-6.73-.57,9,9,0,0,0-5.33,4.47,8.94,8.94,0,0,0-.57,6.71,8.76,8.76,0,0,0,1.7,3.12"></path><path class="watermark-path" d="M147,349c-.48.12-1.09.31-1.82.57a24.37,24.37,0,0,0-2.4,1A28.35,28.35,0,0,0,140,352a20.72,20.72,0,0,0-2.71,1.94c-.7.59-1.28,1.11-1.74,1.57a15.07,15.07,0,0,0-1.1,1.22,4.09,4.09,0,0,0-.59.92,2.32,2.32,0,0,0-.22.64,1.16,1.16,0,0,0,0,.47,1.83,1.83,0,0,0,.18.29,1.15,1.15,0,0,0,1,.37,5.54,5.54,0,0,0,1.51-.38q.87-.35,1.95-.9l2.26-1.18q1.2-.65,2.49-1.29c.87-.44,1.73-.83,2.59-1.17a18.94,18.94,0,0,1,2.6-.81,9.27,9.27,0,0,1,2.46-.29,6.25,6.25,0,0,1,2.24.49,5.12,5.12,0,0,1,1.89,1.47,6.35,6.35,0,0,1,1.41,2.61,6,6,0,0,1,.09,2.6,8.3,8.3,0,0,1-.9,2.52,17.79,17.79,0,0,1-1.62,2.37,23.92,23.92,0,0,1-2,2.15c-.72.67-1.41,1.29-2.09,1.87a33.79,33.79,0,0,1-5.33,3.7,32.29,32.29,0,0,1-4.91,2.28l-3.61-4.3a21.38,21.38,0,0,0,5.39-1.87,27.2,27.2,0,0,0,5.4-3.56,21.59,21.59,0,0,0,2.38-2.27,8.67,8.67,0,0,0,1.18-1.7,2.32,2.32,0,0,0,.27-1.19,1.34,1.34,0,0,0-.28-.74,1.21,1.21,0,0,0-1-.42,4.32,4.32,0,0,0-1.55.34,15.77,15.77,0,0,0-2,.88c-.72.37-1.48.77-2.27,1.21l-2.45,1.3c-.85.45-1.7.85-2.56,1.21a22.37,22.37,0,0,1-2.54.86,10,10,0,0,1-2.43.32,5.76,5.76,0,0,1-2.2-.45,5,5,0,0,1-1.89-1.45,6.12,6.12,0,0,1-1.31-2.41,6,6,0,0,1-.1-2.41,8.28,8.28,0,0,1,.81-2.38,14.06,14.06,0,0,1,1.49-2.24,22.37,22.37,0,0,1,1.85-2.05q1-1,2-1.77c.7-.59,1.44-1.15,2.23-1.7s1.62-1.06,2.44-1.53,1.63-.91,2.43-1.3,1.58-.75,2.3-1L147,349"></path><path class="watermark-path" d="M186.76,337.57l-10.6-12.63,3.92,18.24-4.66,3.91-17.27-7,10.6,12.63-4.86,4.07-15.09-18,6.59-5.54,18.69,7.52-4.15-19.71,6.57-5.52,15.09,18-4.83,4.05"></path><path class="watermark-path" d="M208.84,313.24l-10,8.42,1.16,4.82L194.56,331l-5.68-25.89,5.42-4.55,24.51,10.09-5.42,4.55-4.55-2m-11.23,3.45,6.57-5.52-8.83-3.87,2.26,9.39"></path><path class="watermark-path" d="M227.49,281.38c-.48.12-1.09.31-1.82.57a24.37,24.37,0,0,0-2.4,1,26.11,26.11,0,0,0-2.7,1.47,20.72,20.72,0,0,0-2.71,1.94c-.7.59-1.28,1.11-1.74,1.57a13.39,13.39,0,0,0-1.1,1.22,4.29,4.29,0,0,0-.59.91,2.48,2.48,0,0,0-.22.65,1.16,1.16,0,0,0,0,.47,1.83,1.83,0,0,0,.18.29,1.15,1.15,0,0,0,1,.37,5.54,5.54,0,0,0,1.51-.38q.87-.34,2-.9l2.26-1.18q1.2-.64,2.49-1.29c.87-.44,1.73-.83,2.59-1.17a18.94,18.94,0,0,1,2.6-.81,9.27,9.27,0,0,1,2.46-.29,6.08,6.08,0,0,1,2.24.49,5.09,5.09,0,0,1,1.89,1.46,6.47,6.47,0,0,1,1.41,2.61,6.07,6.07,0,0,1,.09,2.61,8.3,8.3,0,0,1-.9,2.52,16.32,16.32,0,0,1-1.63,2.36,21.41,21.41,0,0,1-2,2.16c-.72.67-1.41,1.29-2.1,1.86a33.36,33.36,0,0,1-5.32,3.71,31.92,31.92,0,0,1-4.92,2.28l-3.6-4.3a21.38,21.38,0,0,0,5.39-1.87,27.2,27.2,0,0,0,5.4-3.56,21.59,21.59,0,0,0,2.38-2.27,8.67,8.67,0,0,0,1.18-1.7A2.32,2.32,0,0,0,231,293a1.34,1.34,0,0,0-.28-.74,1.21,1.21,0,0,0-1-.42,4.32,4.32,0,0,0-1.55.34,16.54,16.54,0,0,0-2,.88c-.71.37-1.47.77-2.26,1.21l-2.46,1.3c-.84.44-1.7.85-2.55,1.21a24.53,24.53,0,0,1-2.54.86A10,10,0,0,1,214,298a5.76,5.76,0,0,1-2.2-.45,5,5,0,0,1-1.89-1.45,6.12,6.12,0,0,1-1.31-2.41,5.78,5.78,0,0,1-.1-2.41,8,8,0,0,1,.81-2.38,14.61,14.61,0,0,1,1.49-2.25,22.26,22.26,0,0,1,1.85-2q1-1,2-1.77c.7-.59,1.44-1.15,2.23-1.7s1.62-1.06,2.44-1.53,1.63-.91,2.43-1.31,1.58-.74,2.3-1l3.5,4.16"></path><path class="watermark-path" d="M261.64,274.74l-6.29-7.5L243,277.61l6.3,7.5-4.86,4.07-15.09-18,4.85-4.08,5.49,6.55L252,263.3l-5.49-6.55,4.86-4.07,15.09,18-4.86,4.08"></path><path class="watermark-path" d="M272.18,265.9l-15.09-18,4.86-4.08,15.09,18-4.86,4.08"></path><path class="watermark-path" d="M299.65,242.85l-22.51-2.18L287.51,253l-4.85,4.08-15.1-18,5.28-4.43,22.56,2.22L285,224.5l4.83-4.06,15.09,18-5.26,4.42"></path><path class="watermark-path" d="M306.68,205.52a31.88,31.88,0,0,1,5.29-3.66,34.48,34.48,0,0,1,5.14-2.35l3.69,4.39a20.77,20.77,0,0,0-2.37.61,20.47,20.47,0,0,0-2.61,1,25.12,25.12,0,0,0-2.76,1.49,23.9,23.9,0,0,0-2.8,2,20.42,20.42,0,0,0-2.8,2.77,12.77,12.77,0,0,0-1.64,2.52,7,7,0,0,0-.68,2.24,6,6,0,0,0,.66,3.64,8.16,8.16,0,0,0,.94,1.38,9.12,9.12,0,0,0,1.08,1.07,6.39,6.39,0,0,0,1.47.91,6.73,6.73,0,0,0,1.88.48,6.54,6.54,0,0,0,2.28-.18,11.67,11.67,0,0,0,2.74-1.07,19.38,19.38,0,0,0,3.18-2.22c.57-.48,1.06-.92,1.46-1.31a14.57,14.57,0,0,0,1-1.13,11.46,11.46,0,0,0,.81-1.05l.74-1.09-1.82-2.17-5.45,4.57-3.31-3.94,10.31-8.65,7.71,9.19a29,29,0,0,1-1.67,2.43q-1,1.26-2.1,2.52c-.74.84-1.5,1.65-2.3,2.44s-1.58,1.5-2.33,2.14a31,31,0,0,1-3.59,2.61,22.55,22.55,0,0,1-3.64,1.83,15.64,15.64,0,0,1-3.63.89,10.72,10.72,0,0,1-3.49-.15,10.45,10.45,0,0,1-3.28-1.33,12.54,12.54,0,0,1-3-2.67,12,12,0,0,1-2.08-3.44,10.45,10.45,0,0,1-.71-3.5,11.14,11.14,0,0,1,.51-3.51,15.72,15.72,0,0,1,1.56-3.43,21.62,21.62,0,0,1,2.42-3.28,30.3,30.3,0,0,1,3.15-3"></path><path class="watermark-path" d="M336.91,211.59l-15.1-18,4.86-4.08,11.79,14,13.13-11,3.31,3.94-18,15.1"></path><path class="watermark-path" d="M374.54,164.71a12.28,12.28,0,0,1,2.59,4.81,10.44,10.44,0,0,1,0,5,14.62,14.62,0,0,1-2.33,5,25.55,25.55,0,0,1-4.56,4.85,26.07,26.07,0,0,1-5.6,3.67,14.79,14.79,0,0,1-5.38,1.43,10.43,10.43,0,0,1-4.94-.89,13.24,13.24,0,0,1-6.87-8.18,10.48,10.48,0,0,1,0-5,14.51,14.51,0,0,1,2.36-5,25.23,25.23,0,0,1,4.57-4.89,25,25,0,0,1,5.59-3.64,14.45,14.45,0,0,1,5.35-1.43,10.31,10.31,0,0,1,4.93.92,12.22,12.22,0,0,1,4.28,3.38m-4.91,4.11a8.36,8.36,0,0,0-2-1.72,5.5,5.5,0,0,0-2.65-.85,7.72,7.72,0,0,0-3.32.57,14.49,14.49,0,0,0-4,2.52,16.72,16.72,0,0,0-2.38,2.4,10.15,10.15,0,0,0-1.39,2.24,6.71,6.71,0,0,0-.56,2.1,5.69,5.69,0,0,0,.1,1.9,6.21,6.21,0,0,0,.61,1.69,9.85,9.85,0,0,0,1,1.44,10.48,10.48,0,0,0,1.26,1.23,6.67,6.67,0,0,0,1.57.92,6.1,6.1,0,0,0,1.85.41,6.8,6.8,0,0,0,2.15-.2,11.06,11.06,0,0,0,2.45-1,17.67,17.67,0,0,0,2.77-1.94,14.39,14.39,0,0,0,3.18-3.52,7.74,7.74,0,0,0,1.14-3.17,5.54,5.54,0,0,0-.37-2.74,8.52,8.52,0,0,0-1.36-2.3"></path><path class="watermark-path" d="M382.66,141.76A32.3,32.3,0,0,1,388,138.1a34.12,34.12,0,0,1,5.15-2.35l3.69,4.4a19.62,19.62,0,0,0-2.37.6,22.08,22.08,0,0,0-2.61,1,26,26,0,0,0-2.77,1.49,23.9,23.9,0,0,0-2.8,2,21,21,0,0,0-2.8,2.78,13.19,13.19,0,0,0-1.64,2.51,7.29,7.29,0,0,0-.68,2.24,6.36,6.36,0,0,0,.06,2,5.8,5.8,0,0,0,.61,1.68,8.12,8.12,0,0,0,.93,1.38,9.16,9.16,0,0,0,1.08,1.08,6.56,6.56,0,0,0,1.48.9,6,6,0,0,0,1.87.48,6.76,6.76,0,0,0,2.28-.17,12,12,0,0,0,2.74-1.08,18.57,18.57,0,0,0,3.18-2.22c.58-.48,1.06-.92,1.46-1.31s.75-.77,1.05-1.12.57-.72.81-1.06l.73-1.09-1.82-2.17-5.45,4.57-3.3-3.94,10.3-8.65,7.71,9.19a29,29,0,0,1-1.67,2.43q-1,1.26-2.1,2.52c-.73.84-1.5,1.66-2.3,2.44s-1.57,1.5-2.33,2.14a31,31,0,0,1-3.59,2.61,22.15,22.15,0,0,1-3.64,1.83,15.56,15.56,0,0,1-3.62.89,11,11,0,0,1-3.49-.14,10.84,10.84,0,0,1-3.28-1.33,12.82,12.82,0,0,1-3-2.68,12.12,12.12,0,0,1-2.08-3.43A10.71,10.71,0,0,1,375,155a11.18,11.18,0,0,1,.51-3.51,15.51,15.51,0,0,1,1.57-3.43,21.44,21.44,0,0,1,2.42-3.28,30.19,30.19,0,0,1,3.14-3"></path><path class="watermark-path" d="M428.63,119.31a12.26,12.26,0,0,1,2.59,4.82,10.44,10.44,0,0,1,0,5,14.53,14.53,0,0,1-2.34,5,25.29,25.29,0,0,1-4.56,4.86,26,26,0,0,1-5.59,3.67,14.84,14.84,0,0,1-5.38,1.43,10.61,10.61,0,0,1-4.95-.89,12.15,12.15,0,0,1-4.3-3.37,12,12,0,0,1-2.56-4.81,10.48,10.48,0,0,1,0-5,14.39,14.39,0,0,1,2.35-5,27.89,27.89,0,0,1,10.16-8.53,14.49,14.49,0,0,1,5.36-1.43,10.27,10.27,0,0,1,4.92.92,12.21,12.21,0,0,1,4.28,3.37m-4.91,4.12a8.17,8.17,0,0,0-2-1.72,5.58,5.58,0,0,0-2.65-.86,7.86,7.86,0,0,0-3.31.58,14.49,14.49,0,0,0-4,2.52,16.21,16.21,0,0,0-2.38,2.4,9.85,9.85,0,0,0-1.4,2.24,7,7,0,0,0-.56,2.1,6,6,0,0,0,.1,1.9,6.23,6.23,0,0,0,.62,1.69,8.49,8.49,0,0,0,1,1.44,9.18,9.18,0,0,0,1.26,1.23,6.67,6.67,0,0,0,1.57.92,6,6,0,0,0,1.84.41,6.86,6.86,0,0,0,2.16-.2,11.26,11.26,0,0,0,2.45-1,17.62,17.62,0,0,0,2.76-1.94,14.67,14.67,0,0,0,3.19-3.52,7.71,7.71,0,0,0,1.13-3.17,5.53,5.53,0,0,0-.36-2.74,8.55,8.55,0,0,0-1.37-2.3"></path></g></svg>